<svg xmlns="http://www.w3.org/2000/svg" xmlns:xlink="http://www.w3.org/1999/xlink" width="500" zoomAndPan="magnify" viewBox="0 0 375 374.999991" height="500" preserveAspectRatio="xMidYMid meet" version="1.0"><defs><g/></defs><g fill="#191919" fill-opacity="1"><g transform="translate(82.942855, 319.424386)"><g><path d="M 6.671875 -177.589844 C 6.671875 -128.652344 43.75 -110.484375 94.542969 -95.65625 C 157.199219 -77.117188 192.421875 -47.457031 174.996094 -31.886719 C 143.851562 -4.449219 124.574219 -91.578125 69.332031 -91.578125 C 14.460938 -91.578125 2.964844 -40.414062 8.527344 0.371094 L 16.683594 0.371094 C 16.683594 -15.941406 20.390625 -26.324219 38.929688 -26.324219 C 57.46875 -26.324219 81.566406 2.59375 118.269531 2.59375 C 166.097656 2.59375 202.433594 -34.109375 202.433594 -75.632812 C 202.433594 -127.167969 137.550781 -149.414062 106.40625 -158.3125 C 43.75 -175.738281 14.832031 -204.285156 32.625 -219.117188 C 65.253906 -246.179688 77.859375 -159.796875 133.101562 -159.796875 C 188.34375 -159.796875 199.464844 -210.960938 194.273438 -251.742188 L 185.746094 -251.742188 C 185.746094 -235.429688 182.039062 -225.046875 163.503906 -225.046875 C 145.335938 -225.046875 126.054688 -253.597656 89.351562 -253.597656 C 42.265625 -253.597656 6.671875 -218.375 6.671875 -177.589844 Z M 6.671875 -177.589844 "/></g></g></g></svg>